<svg width="25" height="26" viewBox="0 0 25 26" fill="none" xmlns="http://www.w3.org/2000/svg">
<path fill-rule="evenodd" clip-rule="evenodd" d="M7.71695 1.69698C8.92954 1.64116 9.31616 1.62875 12.405 1.62875C15.4938 1.62875 15.8805 1.64219 17.092 1.69698C18.3036 1.75177 19.1306 1.94508 19.8542 2.22523C20.6119 2.51158 21.2994 2.95919 21.868 3.53809C22.4468 4.10562 22.8934 4.79203 23.1787 5.5508C23.4599 6.27443 23.6522 7.10143 23.708 8.31091C23.7638 9.52557 23.7763 9.91219 23.7763 13C23.7763 16.0889 23.7628 16.4755 23.708 17.6881C23.6532 18.8976 23.4599 19.7246 23.1787 20.4482C22.8934 21.207 22.4461 21.8946 21.868 22.463C21.2994 23.0419 20.6119 23.4884 19.8542 23.7738C19.1306 24.0549 18.3036 24.2472 17.0941 24.303C15.8805 24.3589 15.4938 24.3713 12.405 24.3713C9.31616 24.3713 8.92954 24.3578 7.71695 24.303C6.50746 24.2482 5.68046 24.0549 4.95683 23.7738C4.19798 23.4884 3.51043 23.0411 2.94205 22.463C2.36355 21.8951 1.91587 21.2079 1.63023 20.4492C1.35008 19.7256 1.1578 18.8986 1.10198 17.6891C1.04616 16.4744 1.03375 16.0878 1.03375 13C1.03375 9.91116 1.04719 9.52454 1.10198 8.31298C1.15677 7.10143 1.35008 6.27443 1.63023 5.5508C1.91629 4.79211 2.36431 4.10491 2.94309 3.53706C3.51066 2.95867 4.19752 2.511 4.9558 2.22523C5.67943 1.94508 6.50643 1.7528 7.71591 1.69698H7.71695ZM17 3.74381C15.8009 3.68902 15.4411 3.67765 12.405 3.67765C9.36888 3.67765 9.00913 3.68902 7.80998 3.74381C6.70077 3.79446 6.09913 3.9795 5.69803 4.1356C5.16772 4.34235 4.78833 4.58735 4.39034 4.98534C4.01307 5.35238 3.72272 5.79919 3.5406 6.29303C3.3845 6.69413 3.19946 7.29577 3.14881 8.40499C3.09402 9.60414 3.08265 9.96388 3.08265 13C3.08265 16.0361 3.09402 16.3959 3.14881 17.595C3.19946 18.7042 3.3845 19.3059 3.5406 19.707C3.72254 20.2001 4.01302 20.6477 4.39034 21.0147C4.75732 21.392 5.20493 21.6825 5.69803 21.8644C6.09913 22.0205 6.70077 22.2056 7.80998 22.2562C9.00913 22.311 9.36785 22.3224 12.405 22.3224C15.4422 22.3224 15.8009 22.311 17 22.2562C18.1092 22.2056 18.7109 22.0205 19.112 21.8644C19.6423 21.6577 20.0217 21.4127 20.4197 21.0147C20.797 20.6477 21.0875 20.2001 21.2694 19.707C21.4255 19.3059 21.6105 18.7042 21.6612 17.595C21.716 16.3959 21.7274 16.0361 21.7274 13C21.7274 9.96388 21.716 9.60414 21.6612 8.40499C21.6105 7.29577 21.4255 6.69413 21.2694 6.29303C21.0627 5.76272 20.8177 5.38333 20.4197 4.98534C20.0526 4.6081 19.6058 4.31776 19.112 4.1356C18.7109 3.9795 18.1092 3.79446 17 3.74381ZM10.9526 16.5055C11.7637 16.8431 12.6669 16.8887 13.5079 16.6344C14.3489 16.3801 15.0756 15.8417 15.5637 15.1112C16.0519 14.3807 16.2713 13.5033 16.1844 12.629C16.0976 11.7547 15.7099 10.9376 15.0876 10.3174C14.6909 9.92096 14.2112 9.61738 13.6831 9.42855C13.1549 9.23972 12.5915 9.17033 12.0334 9.22539C11.4752 9.28044 10.9362 9.45856 10.4551 9.74693C9.97409 10.0353 9.56296 10.4267 9.25134 10.8931C8.93973 11.3594 8.73539 11.889 8.65302 12.4438C8.57066 12.9986 8.61233 13.5647 8.77503 14.1015C8.93773 14.6382 9.21742 15.1322 9.59395 15.5479C9.97048 15.9636 10.4345 16.2906 10.9526 16.5055ZM8.27207 8.86707C8.81481 8.32433 9.45915 7.8938 10.1683 7.60007C10.8774 7.30634 11.6374 7.15516 12.405 7.15516C13.1726 7.15516 13.9326 7.30634 14.6417 7.60007C15.3509 7.8938 15.9952 8.32433 16.5379 8.86707C17.0807 9.40982 17.5112 10.0541 17.8049 10.7633C18.0987 11.4724 18.2499 12.2324 18.2499 13C18.2499 13.7676 18.0987 14.5276 17.8049 15.2367C17.5112 15.9459 17.0807 16.5902 16.5379 17.1329C15.4418 18.2291 13.9552 18.8449 12.405 18.8449C10.8549 18.8449 9.36819 18.2291 8.27207 17.1329C7.17595 16.0368 6.56015 14.5502 6.56015 13C6.56015 11.4499 7.17595 9.96319 8.27207 8.86707ZM19.5462 8.0256C19.6806 7.89873 19.7883 7.74616 19.8628 7.57693C19.9373 7.40769 19.977 7.22524 19.9797 7.04036C19.9824 6.85549 19.948 6.67195 19.8785 6.50062C19.809 6.32929 19.7058 6.17365 19.5751 6.04291C19.4443 5.91217 19.2887 5.80899 19.1173 5.73948C18.946 5.66997 18.7625 5.63554 18.5776 5.63824C18.3927 5.64093 18.2103 5.6807 18.041 5.75517C17.8718 5.82964 17.7192 5.93732 17.5924 6.07181C17.3456 6.33338 17.2105 6.68082 17.2158 7.04036C17.221 7.39991 17.3662 7.74326 17.6204 7.99753C17.8747 8.25179 18.2181 8.39695 18.5776 8.40219C18.9371 8.40744 19.2846 8.27235 19.5462 8.0256Z" fill="#808080"/>
</svg>
