<svg width="25" height="26" viewBox="0 0 25 26" fill="none" xmlns="http://www.w3.org/2000/svg">
<path d="M24.6281 5.64272C23.7583 6.02813 22.824 6.28855 21.8417 6.40626C22.8552 5.79979 23.6135 4.84529 23.975 3.72084C23.0228 4.28646 21.9806 4.68459 20.8938 4.89793C20.1629 4.11758 19.1949 3.60035 18.1399 3.42654C17.085 3.25274 16.0022 3.43208 15.0596 3.93673C14.1171 4.44138 13.3675 5.24309 12.9272 6.21741C12.487 7.19172 12.3808 8.28412 12.625 9.32501C10.6955 9.22813 8.80795 8.72662 7.08482 7.85304C5.36169 6.97945 3.8415 5.7533 2.62292 4.25418C2.20625 4.97293 1.96667 5.80626 1.96667 6.69376C1.9662 7.49271 2.16295 8.27943 2.53946 8.98411C2.91596 9.68878 3.46059 10.2896 4.125 10.7333C3.35446 10.7088 2.60091 10.5006 1.92709 10.1261V10.1886C1.92701 11.3091 2.31462 12.3952 3.02415 13.2625C3.73368 14.1298 4.72143 14.7249 5.81979 14.9469C5.10498 15.1403 4.35556 15.1688 3.62813 15.0302C3.93802 15.9944 4.54166 16.8375 5.35455 17.4416C6.16744 18.0457 7.14887 18.3804 8.16146 18.399C6.44254 19.7484 4.31968 20.4803 2.13438 20.4771C1.74727 20.4772 1.3605 20.4546 0.976044 20.4094C3.19425 21.8356 5.7764 22.5925 8.41354 22.5896C17.3406 22.5896 22.2208 15.1958 22.2208 8.78334C22.2208 8.57501 22.2156 8.36459 22.2063 8.15626C23.1555 7.46977 23.9749 6.61969 24.626 5.64584L24.6281 5.64272Z" fill="#808080"/>
</svg>
