<svg width="149" height="27" viewBox="0 0 149 27" fill="none" xmlns="http://www.w3.org/2000/svg">
<path d="M2.441 5.571L0.116 5.137V2.967H5.014C5.71667 2.967 6.64667 2.92567 7.804 2.843C8.052 2.82233 8.362 2.80167 8.734 2.781C9.106 2.76033 9.54 2.75 10.036 2.75C12.2887 2.75 14.0557 2.95667 15.337 3.37C16.6183 3.78333 17.507 4.37233 18.003 5.137C18.5197 5.90167 18.778 6.86267 18.778 8.02C18.778 9.57 18.2923 10.8513 17.321 11.864C16.3703 12.8767 15.151 13.4863 13.663 13.693C15.7297 13.693 17.352 14.158 18.53 15.088C19.7287 16.018 20.328 17.3303 20.328 19.025C20.328 21.2363 19.5633 22.9827 18.034 24.264C16.5253 25.5453 13.9523 26.186 10.315 26.186C9.73633 26.186 9.17833 26.1653 8.641 26.124C8.10367 26.1033 7.72133 26.093 7.494 26.093C6.75 26.031 5.944 26 5.076 26H0.0540001V23.954L2.441 23.613V5.571ZM7.68 12.918C8.052 12.9593 8.889 12.98 10.191 12.98C11.3277 12.98 12.1647 12.5977 12.702 11.833C13.2393 11.0477 13.508 9.95233 13.508 8.547C13.508 7.245 13.2187 6.29433 12.64 5.695C12.0613 5.09567 11.121 4.796 9.819 4.796C9.509 4.796 9.14733 4.81667 8.734 4.858C8.32067 4.87867 7.96933 4.90967 7.68 4.951V12.918ZM7.68 23.799C8.09333 23.9643 8.90967 24.047 10.129 24.047C11.6583 24.047 12.764 23.644 13.446 22.838C14.1487 22.032 14.5 20.8643 14.5 19.335C14.5 17.8883 14.1797 16.855 13.539 16.235C12.8983 15.615 11.8857 15.305 10.501 15.305C9.36433 15.305 8.424 15.3257 7.68 15.367V23.799ZM22.6157 17.475C22.6157 15.491 23.0084 13.817 23.7937 12.453C24.579 11.0683 25.633 10.035 26.9557 9.353C28.299 8.671 29.7664 8.33 31.3577 8.33C33.9617 8.33 35.9974 9.11533 37.4647 10.686C38.9527 12.236 39.6967 14.406 39.6967 17.196C39.6967 19.242 39.304 20.947 38.5187 22.311C37.7334 23.675 36.6794 24.6877 35.3567 25.349C34.034 26.0103 32.5564 26.341 30.9237 26.341C28.3404 26.341 26.3047 25.566 24.8167 24.016C23.3494 22.4453 22.6157 20.265 22.6157 17.475ZM31.2337 24.171C32.2257 24.171 32.9594 23.644 33.4347 22.59C33.9307 21.5153 34.1787 19.8413 34.1787 17.568C34.1787 15.15 33.941 13.3727 33.4657 12.236C33.011 11.0787 32.236 10.5 31.1407 10.5C29.1154 10.5 28.1027 12.701 28.1027 17.103C28.1027 19.5003 28.3507 21.2777 28.8467 22.435C29.3427 23.5923 30.1384 24.171 31.2337 24.171ZM42.5054 17.475C42.5054 15.491 42.898 13.817 43.6834 12.453C44.4687 11.0683 45.5227 10.035 46.8454 9.353C48.1887 8.671 49.656 8.33 51.2474 8.33C53.8514 8.33 55.887 9.11533 57.3544 10.686C58.8424 12.236 59.5864 14.406 59.5864 17.196C59.5864 19.242 59.1937 20.947 58.4084 22.311C57.623 23.675 56.569 24.6877 55.2464 25.349C53.9237 26.0103 52.446 26.341 50.8134 26.341C48.23 26.341 46.1944 25.566 44.7064 24.016C43.239 22.4453 42.5054 20.265 42.5054 17.475ZM51.1234 24.171C52.1154 24.171 52.849 23.644 53.3244 22.59C53.8204 21.5153 54.0684 19.8413 54.0684 17.568C54.0684 15.15 53.8307 13.3727 53.3554 12.236C52.9007 11.0787 52.1257 10.5 51.0304 10.5C49.005 10.5 47.9924 12.701 47.9924 17.103C47.9924 19.5003 48.2404 21.2777 48.7364 22.435C49.2324 23.5923 50.028 24.171 51.1234 24.171ZM63.697 3.618L61.589 3.215V1.324L67.758 0.579998H67.851L68.75 1.231V15.708L68.657 17.227L74.485 11.089L72.191 10.748V8.795H80.623V10.748L78.081 11.151L74.733 14.344L79.848 23.675L81.46 23.954V26H72.842V23.954L74.237 23.675L71.168 17.537L68.657 20.141L68.719 21.722V23.675L70.517 23.954V26H61.992V23.954L63.697 23.675V3.618ZM84.5433 5.571L82.2493 5.137V2.967H87.3023C87.633 2.967 88.2736 2.94633 89.2243 2.905C90.423 2.82233 91.508 2.781 92.4793 2.781C94.7113 2.781 96.468 3.04967 97.7493 3.587C99.0306 4.12433 99.94 4.89933 100.477 5.912C101.015 6.904 101.283 8.16467 101.283 9.694C101.283 12.3393 100.477 14.3957 98.8653 15.863C97.2533 17.3303 94.9593 18.064 91.9833 18.064C91.0533 18.064 90.3403 18.033 89.8443 17.971V23.613L93.9363 23.954V26H82.1563V23.954L84.5433 23.644V5.571ZM89.8133 15.832C90.2266 15.9353 90.9086 15.987 91.8593 15.987C94.546 15.987 95.8893 13.9307 95.8893 9.818C95.8893 8.10267 95.5483 6.85233 94.8663 6.067C94.205 5.261 93.2026 4.858 91.8593 4.858C91.2806 4.858 90.826 4.889 90.4953 4.951C90.1646 4.99233 89.9373 5.02333 89.8133 5.044V15.832ZM103.173 17.475C103.173 15.491 103.566 13.817 104.351 12.453C105.137 11.0683 106.191 10.035 107.513 9.353C108.857 8.671 110.324 8.33 111.915 8.33C114.519 8.33 116.555 9.11533 118.022 10.686C119.51 12.236 120.254 14.406 120.254 17.196C120.254 19.242 119.862 20.947 119.076 22.311C118.291 23.675 117.237 24.6877 115.914 25.349C114.592 26.0103 113.114 26.341 111.481 26.341C108.898 26.341 106.862 25.566 105.374 24.016C103.907 22.4453 103.173 20.265 103.173 17.475ZM111.791 24.171C112.783 24.171 113.517 23.644 113.992 22.59C114.488 21.5153 114.736 19.8413 114.736 17.568C114.736 15.15 114.499 13.3727 114.023 12.236C113.569 11.0787 112.794 10.5 111.698 10.5C109.673 10.5 108.66 12.701 108.66 17.103C108.66 19.5003 108.908 21.2777 109.404 22.435C109.9 23.5923 110.696 24.171 111.791 24.171ZM129.387 26.341C127.403 26.341 125.791 25.628 124.551 24.202C123.311 22.776 122.691 20.637 122.691 17.785C122.691 16.0697 123.042 14.499 123.745 13.073C124.468 11.6263 125.522 10.4793 126.907 9.632C128.312 8.764 130.007 8.33 131.991 8.33C132.59 8.33 133.21 8.40233 133.851 8.547V3.618L130.875 3.184V1.2L137.726 0.579998H137.881L138.811 1.324V23.923H140.423V25.907C138.832 26.217 137.509 26.372 136.455 26.372C135.732 26.372 135.205 26.248 134.874 26C134.564 25.7727 134.409 25.318 134.409 24.636V23.861C133.913 24.5843 133.2 25.1837 132.27 25.659C131.34 26.1137 130.379 26.341 129.387 26.341ZM131.247 23.551C131.826 23.551 132.332 23.4373 132.766 23.21C133.221 22.962 133.582 22.6727 133.851 22.342V11.12C133.706 10.934 133.438 10.779 133.045 10.655C132.673 10.531 132.27 10.469 131.836 10.469C130.679 10.469 129.759 11.027 129.077 12.143C128.395 13.2383 128.054 15.0363 128.054 17.537C128.054 19.583 128.343 21.102 128.922 22.094C129.501 23.0653 130.276 23.551 131.247 23.551Z" fill="black"/>
<path d="M145.69 26.248C144.987 26.248 144.367 26 143.83 25.504C143.313 25.008 143.055 24.3983 143.055 23.675C143.055 22.8483 143.355 22.1767 143.954 21.66C144.553 21.1227 145.297 20.854 146.186 20.854C146.992 20.854 147.643 21.1123 148.139 21.629C148.635 22.1457 148.883 22.7553 148.883 23.458C148.883 24.326 148.594 25.008 148.015 25.504C147.436 26 146.661 26.248 145.69 26.248Z" fill="#004687"/>
</svg>
