<svg width="17" height="18" viewBox="0 0 17 18" fill="none" xmlns="http://www.w3.org/2000/svg">
<path d="M7.08332 13.25C8.3406 13.2497 9.56164 12.8288 10.552 12.0543L13.6659 15.1682L14.6674 14.1666L11.5536 11.0527C12.3285 10.0623 12.7497 8.84092 12.75 7.58332C12.75 4.45886 10.2078 1.91666 7.08332 1.91666C3.95887 1.91666 1.41666 4.45886 1.41666 7.58332C1.41666 10.7078 3.95887 13.25 7.08332 13.25ZM7.08332 3.33332C9.4272 3.33332 11.3333 5.23945 11.3333 7.58332C11.3333 9.9272 9.4272 11.8333 7.08332 11.8333C4.73945 11.8333 2.83332 9.9272 2.83332 7.58332C2.83332 5.23945 4.73945 3.33332 7.08332 3.33332Z" fill="#AFAFAF"/>
</svg>
