<svg width="25" height="24" viewBox="0 0 25 24" fill="none" xmlns="http://www.w3.org/2000/svg">
<path d="M7.011 21H2.65725V6.9795H7.011V21ZM4.8315 5.067C3.4395 5.067 2.31 3.9135 2.31 2.5215C2.31 1.85276 2.57565 1.2114 3.04853 0.73853C3.5214 0.265657 4.16275 0 4.8315 0C5.50024 0 6.14159 0.265657 6.61447 0.73853C7.08734 1.2114 7.353 1.85276 7.353 2.5215C7.353 3.9135 6.2235 5.067 4.8315 5.067ZM23.3055 21H18.9615V14.175C18.9615 12.5483 18.9285 10.4625 16.698 10.4625C14.4345 10.4625 14.0872 12.2295 14.0872 14.058V21H9.738V6.9795H13.9132V8.892H13.974C14.5552 7.79025 15.975 6.62775 18.093 6.62775C22.4992 6.62775 23.3092 9.5295 23.3092 13.2983V21H23.3055Z" fill="#808080"/>
</svg>
